# xmcd
#
# Track frame offsets:
# 180
# 18697
# 41575
# 66577
# 92792
# 117107
# 137915
# 153107
# 172867
# 184452
#
# Disc length: 2791 seconds
#
#
# Revision: 0
# Processed by: cddbd v1.5.1PL0 Copyright (c) Steve Scherf et al.
# Submitted via: FreeRIP 2.941 
#
DISCID=880ae50a
DTITLE=Ernest Ray Everett - Ernest Ray Everett
DYEAR=1900
DGENRE=Country
TTITLE0=King Of Wasting Time
TTITLE1=Runway 13
TTITLE2=Lady In Black
TTITLE3=All It's Gonna Take
TTITLE4=Wild One
TTITLE5=Wonna Be Free
TTITLE6=Angel Child
TTITLE7=Lady Of The Evening
TTITLE8=Where's The Fire
TTITLE9=Let's Play Doctor
EXTD=
EXTT0=
EXTT1=
EXTT2=
EXTT3=
EXTT4=
EXTT5=
EXTT6=
EXTT7=
EXTT8=
EXTT9=
PLAYORDER=
